<svg id="Laag_1" data-name="Laag 1" xmlns="http://www.w3.org/2000/svg" viewBox="0 0 88 63.92"><defs><style>.cls-1{fill:#fe7043;}.cls-2{fill:#dc2c00;}.cls-3{fill:#f3511e;}.cls-4{fill:#5e4138;}.cls-5{fill:#fed303;}.cls-6{fill:#f3521f;}.cls-7{fill:#263238;}.cls-8{fill:#eeeae8;}.cls-9{fill:#fed500;}.cls-10{fill:#fca900;}.cls-11{fill:#b8a59f;}</style></defs><path class="cls-1" d="M16.33,27.18c.4-5.18,3.2-8,8.09-8q25.9,0,51.82,0c4.88,0,7.68,2.81,8.09,8-2.65,2.3-5.88,1.46-8.89,1.55-3.74.11-7.49.14-11.23-.07-14.09.29-28.19.09-42.28.1C19.93,28.76,17.93,28.64,16.33,27.18Z" transform="translate(-16.33 -19.17)"/><path class="cls-2" d="M64.33,27.18h20c2.16,1,1.85,3.35,2.47,5.08,2,5.57,3.71,11.27,5.53,16.92,2.09,3.07,1.62,6.31.67,9.6A3,3,0,0,1,91.65,60a104.08,104.08,0,0,1-26.8-.08,3,3,0,0,1-1.33-1.35C62,49,62.81,39.42,63.05,29.82A4.31,4.31,0,0,1,64.33,27.18Z" transform="translate(-16.33 -19.17)"/><path class="cls-1" d="M64.33,73.18h-18c-1.31-.92-1.6-2.45-2.27-3.75a8.31,8.31,0,0,0-8-4.83,8.28,8.28,0,0,0-7.49,4.83c-.66,1.3-1,2.83-2.26,3.75H18.75l-2.42-2.9V59.18a6.36,6.36,0,0,1,4.46-1.42q19.53-.39,39.06,0a6.3,6.3,0,0,1,4.48,1.43A14.78,14.78,0,0,1,64.33,73.18Z" transform="translate(-16.33 -19.17)"/><path class="cls-3" d="M20.33,59.18h-4v-32h48v32h-4a17.84,17.84,0,0,1-2.82-4.5c-1-3.6-.37-7.31-.75-11,.14-2.4,2.88-4.11,1.83-6.83a7.17,7.17,0,0,0-3.31-4.18c-9.67-.23-20.21-.24-29.86,0a6.83,6.83,0,0,0-3.33,4.13c-1.08,2.72,1.64,4.43,1.8,6.82-.38,3.66.25,7.38-.74,11A18.07,18.07,0,0,1,20.33,59.18Z" transform="translate(-16.33 -19.17)"/><ellipse class="cls-4" cx="20" cy="54.01" rx="10" ry="9.91"/><path class="cls-3" d="M92.33,66.18c-5.54-3-5.54-2-10-2-4.9,1.92-7,3.8-7,9h-11v-14h28A5.2,5.2,0,0,1,92.33,66.18Z" transform="translate(-16.33 -19.17)"/><path class="cls-1" d="M92.33,66.18v-7c1.45-1.34,3.28-1.35,5.09-1.45,2.4,0,4.87-.28,6.91,1.45V70.77l-3.17,2.41H94.33c.38-1.84-.62-3.35-1.41-4.79A4.22,4.22,0,0,1,92.33,66.18Z" transform="translate(-16.33 -19.17)"/><path class="cls-5" d="M104.33,59.18h-7c-3.33-2.67-2.89-5.76-1-9,2.65.8,5.53,1.07,8,3.45Z" transform="translate(-16.33 -19.17)"/><path class="cls-6" d="M96.33,50.18a51.14,51.14,0,0,1-.06,5.94c-.16,1.32.88,2,1.06,3.06h-5v-10a9.46,9.46,0,0,1,1.81.33A12.23,12.23,0,0,0,96.33,50.18Z" transform="translate(-16.33 -19.17)"/><path class="cls-7" d="M82.19,31.34c2,6,3.94,11.75,5.92,17.68H68.33c0-5.72,0-11.62,0-17.68Z" transform="translate(-16.33 -19.17)"/><path class="cls-8" d="M58.33,55.18h2v4h-40v-4h2a7.12,7.12,0,0,1,5.09-1.56q12.9-.13,25.81,0A7.16,7.16,0,0,1,58.33,55.18Z" transform="translate(-16.33 -19.17)"/><path class="cls-7" d="M58.33,55.18h-36V44.43c0-.68.05-1.32,1-1.25a7.83,7.83,0,0,1,3.81-2.39c9.08.42,17.29.36,26.56,0a7.93,7.93,0,0,1,3.63,2.35c.94-.07,1,.57,1,1.25Z" transform="translate(-16.33 -19.17)"/><path class="cls-9" d="M20.33,37.18l2.33-6H58l2.34,6c-1.61,1.46-3.6,1.57-5.6,1.58q-14.4.09-28.81,0C23.93,38.75,21.93,38.64,20.33,37.18Z" transform="translate(-16.33 -19.17)"/><path class="cls-10" d="M20.33,37.18h40v3.24c-.36,1.79-2.68,1.11-3,2.76H54.57l-1.6-2c-1.7-.21-2.08,1.18-3.11,1.88h-3L44.73,41.2c-1.53-.14-1.64,1.31-2.09,1.38-1.53.92-2.69.46-4,.63l-1.64-2c-1.69-.21-2.06,1.19-3.09,1.89h-3l-2.19-2c-1.54.1-1.91,1.44-2.86,2H23.33c.07-1-.62-.85-1.24-1a7.35,7.35,0,0,1-1.76-1.31Z" transform="translate(-16.33 -19.17)"/><path class="cls-11" d="M34.82,77.18l-2.46-2.52V71.58l3-2.32H38l2.33,3.3v2.17l-3.4,2.45Z" transform="translate(-16.33 -19.17)"/><circle class="cls-11" cx="20" cy="54.05" r="4.45"/><ellipse class="cls-4" cx="69" cy="54.01" rx="10" ry="9.91"/><path class="cls-11" d="M83.82,77.18l-2.46-2.52V71.58l3-2.32H87l2.33,3.3v2.17l-3.4,2.45Z" transform="translate(-16.33 -19.17)"/><circle class="cls-11" cx="69" cy="54.05" r="4.45"/></svg>